<?xml version="1.0" ?><svg id="Layer_1" style="enable-background:new 0 0 1024 1024;" version="1.1" viewBox="0 0 1024 1024" xml:space="preserve" xmlns="http://www.w3.org/2000/svg" xmlns:xlink="http://www.w3.org/1999/xlink"><path d="M898.5,254H803v-71.5c0-10.2-8.3-18.5-18.5-18.5h-87.7c-9.8,0-17.8,8-17.8,17.8V254H345v-72.1  c0-9.9-8-17.9-17.9-17.9h-88.4c-9.8,0-17.8,8-17.8,17.8V254h-95.5C98.7,254,77,275.7,77,302.5v509.1c0,26.8,21.7,48.5,48.5,48.5h773  c26.8,0,48.5-21.7,48.5-48.5V302.5C947,275.7,925.3,254,898.5,254z M389,466h-61v61h-40v-61h-61v-40h61v-61h40v61h61V466z M797,466  H655v-40h142V466z" id="XMLID_220_"/><g id="XMLID_1_"/><g id="XMLID_2_"/><g id="XMLID_3_"/><g id="XMLID_4_"/><g id="XMLID_5_"/></svg>